<svg width="27" height="28" viewBox="0 0 27 28" fill="none" xmlns="http://www.w3.org/2000/svg">
<g clip-path="url(#clip0_37_25)">
<path d="M13.6498 0.82959C10.0514 0.82959 9.59891 0.846165 8.18506 0.90915C6.77121 0.97545 5.80821 1.19755 4.96454 1.52574C4.07959 1.8586 3.27802 2.38072 2.61586 3.05561C1.94139 3.71811 1.41932 4.51958 1.08599 5.40429C0.757804 6.2463 0.534042 7.21096 0.469399 8.61984C0.406414 10.037 0.389839 10.4878 0.389839 14.0912C0.389839 17.6913 0.406414 18.1422 0.469399 19.556C0.535699 20.9682 0.757804 21.9312 1.08599 22.7749C1.42578 23.6467 1.87827 24.386 2.61586 25.1236C3.35179 25.8612 4.09104 26.3153 4.96288 26.6534C5.80821 26.9816 6.76956 27.2054 8.18175 27.27C9.59725 27.333 10.0481 27.3496 13.6498 27.3496C17.2516 27.3496 17.7008 27.333 19.1163 27.27C20.5268 27.2037 21.4931 26.9816 22.3368 26.6534C23.2212 26.3204 24.0222 25.7983 24.6838 25.1236C25.4214 24.386 25.8739 23.6467 26.2137 22.7749C26.5402 21.9312 26.764 20.9682 26.8303 19.556C26.8933 18.1422 26.9098 17.6913 26.9098 14.0896C26.9098 10.4878 26.8933 10.037 26.8303 8.6215C26.764 7.21097 26.5402 6.2463 26.2137 5.40429C25.8804 4.51956 25.3583 3.71808 24.6838 3.05561C24.0219 2.38047 23.2202 1.85831 22.3351 1.52574C21.4898 1.19755 20.5252 0.973792 19.1146 0.90915C17.6991 0.846165 17.2499 0.82959 13.6465 0.82959H13.6515H13.6498ZM12.4614 3.2197H13.6515C17.1919 3.2197 17.6113 3.23131 19.0085 3.29595C20.3014 3.35396 21.0042 3.57109 21.4716 3.75176C22.0898 3.9921 22.5324 4.2805 22.9965 4.7446C23.4606 5.2087 23.7473 5.6496 23.9877 6.26951C24.17 6.73526 24.3855 7.43804 24.4435 8.73089C24.5081 10.1282 24.5214 10.5475 24.5214 14.0863C24.5214 17.625 24.5081 18.046 24.4435 19.4433C24.3855 20.7362 24.1683 21.4373 23.9877 21.9047C23.7751 22.4805 23.4358 23.001 22.9948 23.4279C22.5307 23.892 22.0898 24.1788 21.4699 24.4191C21.0058 24.6015 20.303 24.8169 19.0085 24.8766C17.6113 24.9396 17.1919 24.9545 13.6515 24.9545C10.1111 24.9545 9.69007 24.9396 8.2928 24.8766C6.99995 24.8169 6.29883 24.6015 5.83141 24.4191C5.25543 24.2068 4.73436 23.8681 4.30651 23.4279C3.8652 23.0004 3.52537 22.4793 3.31201 21.903C3.13134 21.4373 2.91421 20.7345 2.8562 19.4417C2.79321 18.0444 2.77995 17.625 2.77995 14.083C2.77995 10.5425 2.79321 10.1248 2.8562 8.72758C2.91587 7.43473 3.13134 6.73195 3.31367 6.26453C3.55401 5.64629 3.84241 5.20373 4.30651 4.73963C4.77061 4.27553 5.21151 3.98879 5.83141 3.74845C6.29883 3.56612 6.99995 3.35065 8.2928 3.29098C9.51603 3.23462 9.99008 3.21805 12.4614 3.21639V3.2197ZM20.729 5.42087C20.5201 5.42087 20.3131 5.46202 20.1201 5.54199C19.927 5.62195 19.7516 5.73916 19.6039 5.88692C19.4561 6.03467 19.3389 6.21009 19.2589 6.40314C19.179 6.59619 19.1378 6.80311 19.1378 7.01206C19.1378 7.22102 19.179 7.42794 19.2589 7.62099C19.3389 7.81404 19.4561 7.98946 19.6039 8.13721C19.7516 8.28497 19.927 8.40218 20.1201 8.48214C20.3131 8.56211 20.5201 8.60327 20.729 8.60327C21.151 8.60327 21.5558 8.43562 21.8542 8.13721C22.1526 7.83881 22.3202 7.43408 22.3202 7.01206C22.3202 6.59005 22.1526 6.18532 21.8542 5.88692C21.5558 5.58851 21.151 5.42087 20.729 5.42087ZM13.6515 7.28058C12.7483 7.26649 11.8513 7.43222 11.0127 7.76812C10.1742 8.10402 9.41081 8.60338 8.76709 9.23713C8.12338 9.87088 7.61217 10.6264 7.26323 11.4596C6.91429 12.2928 6.73458 13.1871 6.73458 14.0904C6.73458 14.9937 6.91429 15.8881 7.26323 16.7213C7.61217 17.5545 8.12338 18.31 8.76709 18.9437C9.41081 19.5775 10.1742 20.0768 11.0127 20.4127C11.8513 20.7486 12.7483 20.9144 13.6515 20.9003C15.4392 20.8724 17.1442 20.1426 18.3985 18.8686C19.6529 17.5945 20.3559 15.8783 20.3559 14.0904C20.3559 12.3025 19.6529 10.5863 18.3985 9.31226C17.1442 8.0382 15.4392 7.30847 13.6515 7.28058ZM13.6515 9.66904C14.8239 9.66904 15.9483 10.1348 16.7773 10.9638C17.6063 11.7928 18.0721 12.9172 18.0721 14.0896C18.0721 15.262 17.6063 16.3864 16.7773 17.2154C15.9483 18.0444 14.8239 18.5101 13.6515 18.5101C12.4791 18.5101 11.3547 18.0444 10.5257 17.2154C9.69668 16.3864 9.23094 15.262 9.23094 14.0896C9.23094 12.9172 9.69668 11.7928 10.5257 10.9638C11.3547 10.1348 12.4791 9.66904 13.6515 9.66904Z" fill="white"/>
</g>
<defs>
<clipPath id="clip0_37_25">
<rect width="26.52" height="26.52" fill="white" transform="translate(0.389839 0.82959)"/>
</clipPath>
</defs>
</svg>
