<svg width="478" height="444" viewBox="0 0 478 444" fill="none" xmlns="http://www.w3.org/2000/svg">
<g filter="url(#filter0_d_1_358)">
<rect x="93" y="56" width="240.12" height="207" rx="5.91429" fill="white"/>
</g>
<path d="M117.849 95.4744H120.102V87.4096L125.964 95.4744H127.736V83.1372H125.484V91.0528L119.605 83.1372H117.849V95.4744ZM134.214 95.6731C135.131 95.6731 135.931 95.4688 136.615 95.0604C137.311 94.6408 137.797 94.1109 138.073 93.4706L136.317 92.6095C136.119 92.9517 135.843 93.2332 135.489 93.454C135.147 93.6638 134.728 93.7687 134.231 93.7687C133.579 93.7687 133.033 93.57 132.591 93.1725C132.15 92.7751 131.896 92.2452 131.83 91.5828H138.321C138.365 91.4613 138.393 91.3233 138.404 91.1688C138.426 91.0032 138.437 90.8376 138.437 90.672C138.437 89.866 138.266 89.1319 137.924 88.4695C137.581 87.8071 137.085 87.2772 136.433 86.8797C135.782 86.4712 134.987 86.267 134.049 86.267C133.21 86.267 132.448 86.4712 131.763 86.8797C131.09 87.2882 130.554 87.8457 130.157 88.5523C129.771 89.2478 129.577 90.0482 129.577 90.9535C129.577 91.8256 129.771 92.6205 130.157 93.3381C130.543 94.0557 131.084 94.6243 131.78 95.0438C132.475 95.4633 133.287 95.6731 134.214 95.6731ZM134.049 88.0555C134.623 88.0555 135.097 88.2321 135.473 88.5854C135.859 88.9276 136.074 89.3748 136.119 89.9268H131.879C132.001 89.3306 132.255 88.8724 132.641 88.5523C133.038 88.2211 133.508 88.0555 134.049 88.0555ZM142.35 95.4744H144.271L146.391 89.3968L148.477 95.4744H150.415L153.512 86.4657H151.226L149.339 92.1292L147.351 86.4657H145.43L143.427 92.1458L141.539 86.4657H139.254L142.35 95.4744ZM160.36 95.4744H162.281L165.825 86.4657H163.457L161.321 92.3445L159.184 86.4657H156.816L160.36 95.4744ZM167.024 85.4556H169.193V83.1372H167.024V85.4556ZM167.024 95.4744H169.193V86.4657H167.024V95.4744ZM174.624 95.6731C175.309 95.6731 175.905 95.5572 176.413 95.3253C176.92 95.0935 177.318 94.7733 177.605 94.3648C177.892 93.9453 178.036 93.4651 178.036 92.9241C178.036 92.2948 177.837 91.7539 177.439 91.3012C177.042 90.8486 176.468 90.5174 175.717 90.3076L174.276 89.8771C173.967 89.7888 173.713 89.6728 173.515 89.5293C173.316 89.3858 173.217 89.1871 173.217 88.9332C173.217 88.6682 173.321 88.4529 173.531 88.2873C173.741 88.1217 174.028 88.0389 174.392 88.0389C174.845 88.0389 175.253 88.1604 175.618 88.4032C175.993 88.6461 176.253 88.9718 176.396 89.3803L178.052 88.602C177.776 87.8733 177.312 87.3048 176.661 86.8963C176.01 86.4768 175.259 86.267 174.409 86.267C173.758 86.267 173.178 86.3829 172.67 86.6148C172.173 86.8466 171.781 87.1723 171.494 87.5918C171.218 88.0003 171.08 88.4805 171.08 89.0325C171.08 89.6508 171.274 90.1862 171.66 90.6388C172.057 91.0915 172.637 91.4282 173.399 91.649L174.873 92.063C175.16 92.1403 175.402 92.2562 175.601 92.4108C175.811 92.5543 175.916 92.753 175.916 93.0069C175.916 93.305 175.794 93.5424 175.552 93.719C175.32 93.8846 175.011 93.9674 174.624 93.9674C174.116 93.9674 173.658 93.8239 173.25 93.5368C172.841 93.2498 172.516 92.8524 172.273 92.3445L170.65 93.1228C170.915 93.8956 171.4 94.5139 172.107 94.9776C172.825 95.4412 173.664 95.6731 174.624 95.6731ZM179.703 85.4556H181.872V83.1372H179.703V85.4556ZM179.703 95.4744H181.872V86.4657H179.703V95.4744ZM187.982 95.5737C188.346 95.5737 188.705 95.5461 189.058 95.4909V93.6196C188.849 93.6528 188.655 93.6693 188.479 93.6693C187.949 93.6693 187.562 93.5479 187.319 93.305C187.077 93.0621 186.955 92.7144 186.955 92.2617V88.4032H189.025V86.4657H186.955V84.4123H184.786V85.1078C184.786 85.5494 184.664 85.8861 184.421 86.118C184.179 86.3498 183.836 86.4657 183.395 86.4657H183.229V88.4032H184.786V92.3776C184.786 93.3823 185.062 94.1661 185.614 94.7292C186.177 95.2922 186.966 95.5737 187.982 95.5737ZM195.04 95.6731C195.912 95.6731 196.707 95.4744 197.424 95.0769C198.142 94.6684 198.716 94.1109 199.147 93.4044C199.577 92.6868 199.793 91.8753 199.793 90.97C199.793 90.0648 199.577 89.2588 199.147 88.5523C198.727 87.8457 198.159 87.2882 197.441 86.8797C196.723 86.4712 195.923 86.267 195.04 86.267C194.146 86.267 193.34 86.4712 192.622 86.8797C191.904 87.2882 191.33 87.8457 190.9 88.5523C190.48 89.2588 190.271 90.0648 190.271 90.97C190.271 91.8753 190.48 92.6812 190.9 93.3878C191.33 94.0944 191.904 94.6519 192.622 95.0604C193.351 95.4688 194.157 95.6731 195.04 95.6731ZM195.04 93.6859C194.554 93.6859 194.118 93.57 193.732 93.3381C193.356 93.1063 193.058 92.7861 192.837 92.3776C192.628 91.9581 192.523 91.4889 192.523 90.97C192.523 90.4512 192.628 89.9875 192.837 89.579C193.058 89.1705 193.356 88.8504 193.732 88.6185C194.118 88.3756 194.554 88.2542 195.04 88.2542C195.526 88.2542 195.951 88.3756 196.315 88.6185C196.69 88.8504 196.983 89.1705 197.193 89.579C197.413 89.9875 197.524 90.4512 197.524 90.97C197.524 91.4889 197.413 91.9581 197.193 92.3776C196.983 92.7861 196.69 93.1063 196.315 93.3381C195.951 93.57 195.526 93.6859 195.04 93.6859ZM201.438 95.4744H203.607V90.4567C203.607 89.7722 203.795 89.2423 204.17 88.8669C204.556 88.4805 205.053 88.2873 205.66 88.2873H206.439V86.3664H205.909C205.357 86.3664 204.871 86.4657 204.452 86.6644C204.032 86.8632 203.706 87.222 203.475 87.7408V86.4657H201.438V95.4744ZM211.059 95.6731C211.744 95.6731 212.34 95.5572 212.848 95.3253C213.356 95.0935 213.753 94.7733 214.04 94.3648C214.327 93.9453 214.471 93.4651 214.471 92.9241C214.471 92.2948 214.272 91.7539 213.875 91.3012C213.477 90.8486 212.903 90.5174 212.152 90.3076L210.712 89.8771C210.403 89.7888 210.149 89.6728 209.95 89.5293C209.751 89.3858 209.652 89.1871 209.652 88.9332C209.652 88.6682 209.757 88.4529 209.966 88.2873C210.176 88.1217 210.463 88.0389 210.828 88.0389C211.28 88.0389 211.689 88.1604 212.053 88.4032C212.428 88.6461 212.688 88.9718 212.831 89.3803L214.487 88.602C214.211 87.8733 213.748 87.3048 213.096 86.8963C212.445 86.4768 211.694 86.267 210.844 86.267C210.193 86.267 209.613 86.3829 209.105 86.6148C208.609 86.8466 208.217 87.1723 207.93 87.5918C207.654 88.0003 207.516 88.4805 207.516 89.0325C207.516 89.6508 207.709 90.1862 208.095 90.6388C208.493 91.0915 209.072 91.4282 209.834 91.649L211.308 92.063C211.595 92.1403 211.838 92.2562 212.036 92.4108C212.246 92.5543 212.351 92.753 212.351 93.0069C212.351 93.305 212.23 93.5424 211.987 93.719C211.755 93.8846 211.446 93.9674 211.059 93.9674C210.552 93.9674 210.093 93.8239 209.685 93.5368C209.276 93.2498 208.951 92.8524 208.708 92.3445L207.085 93.1228C207.35 93.8956 207.836 94.5139 208.542 94.9776C209.26 95.4412 210.099 95.6731 211.059 95.6731Z" fill="#131126"/>
<path d="M124.133 140.427C125.41 140.427 126.514 140.19 127.445 139.717C128.391 139.228 129.117 138.581 129.621 137.777C130.142 136.957 130.402 136.058 130.402 135.08C130.402 134.102 130.173 133.259 129.716 132.549C129.274 131.823 128.628 131.232 127.776 130.775C128.375 130.38 128.841 129.86 129.172 129.213C129.503 128.551 129.669 127.825 129.669 127.037C129.669 126.106 129.432 125.278 128.959 124.553C128.486 123.827 127.831 123.26 126.995 122.849C126.159 122.439 125.205 122.234 124.133 122.234C123.045 122.234 122.083 122.447 121.247 122.873C120.411 123.283 119.756 123.851 119.283 124.576C118.81 125.286 118.573 126.106 118.573 127.037C118.573 127.81 118.739 128.535 119.07 129.213C119.401 129.891 119.875 130.412 120.49 130.775C118.739 131.689 117.864 133.117 117.864 135.057C117.864 136.034 118.116 136.933 118.621 137.753C119.141 138.574 119.867 139.228 120.797 139.717C121.743 140.19 122.855 140.427 124.133 140.427ZM124.133 129.521C123.439 129.521 122.871 129.308 122.43 128.882C122.004 128.44 121.791 127.888 121.791 127.226C121.791 126.579 122.004 126.043 122.43 125.617C122.871 125.176 123.439 124.955 124.133 124.955C124.827 124.955 125.387 125.176 125.812 125.617C126.238 126.043 126.451 126.579 126.451 127.226C126.451 127.888 126.238 128.44 125.812 128.882C125.387 129.308 124.827 129.521 124.133 129.521ZM124.133 137.706C123.218 137.706 122.485 137.454 121.933 136.949C121.381 136.444 121.105 135.782 121.105 134.962C121.105 134.142 121.381 133.487 121.933 132.998C122.485 132.494 123.218 132.241 124.133 132.241C125.048 132.241 125.781 132.494 126.333 132.998C126.901 133.487 127.185 134.142 127.185 134.962C127.185 135.782 126.901 136.444 126.333 136.949C125.781 137.454 125.048 137.706 124.133 137.706ZM140.547 140.143H143.717V136.263H146.296V133.566H143.717V122.518H140.358L132.456 133.566V136.263H140.547V140.143ZM140.547 133.566H135.626L140.547 126.493V133.566ZM153.471 131.461C154.338 131.461 155.119 131.256 155.813 130.846C156.507 130.42 157.059 129.86 157.469 129.166C157.879 128.472 158.084 127.699 158.084 126.848C158.084 125.996 157.879 125.223 157.469 124.529C157.059 123.819 156.507 123.26 155.813 122.849C155.119 122.439 154.338 122.234 153.471 122.234C152.603 122.234 151.815 122.439 151.105 122.849C150.395 123.26 149.836 123.819 149.425 124.529C149.015 125.223 148.81 125.996 148.81 126.848C148.81 127.699 149.015 128.472 149.425 129.166C149.836 129.86 150.395 130.42 151.105 130.846C151.815 131.256 152.603 131.461 153.471 131.461ZM150.703 140.143H154.015L168.304 122.518H164.992L150.703 140.143ZM153.471 129.071C152.793 129.071 152.256 128.843 151.862 128.385C151.484 127.928 151.294 127.415 151.294 126.848C151.294 126.28 151.484 125.767 151.862 125.31C152.256 124.837 152.793 124.6 153.471 124.6C154.149 124.6 154.669 124.837 155.032 125.31C155.411 125.767 155.6 126.28 155.6 126.848C155.6 127.415 155.411 127.928 155.032 128.385C154.669 128.843 154.149 129.071 153.471 129.071ZM165.465 140.427C166.332 140.427 167.113 140.222 167.807 139.812C168.517 139.386 169.077 138.826 169.487 138.132C169.897 137.438 170.102 136.665 170.102 135.814C170.102 134.962 169.897 134.189 169.487 133.495C169.077 132.785 168.517 132.226 167.807 131.816C167.113 131.405 166.332 131.2 165.465 131.2C164.598 131.2 163.809 131.405 163.099 131.816C162.405 132.226 161.853 132.785 161.443 133.495C161.033 134.189 160.828 134.962 160.828 135.814C160.828 136.665 161.033 137.438 161.443 138.132C161.853 138.826 162.405 139.386 163.099 139.812C163.809 140.222 164.598 140.427 165.465 140.427ZM165.465 138.037C164.787 138.037 164.258 137.809 163.88 137.351C163.501 136.894 163.312 136.381 163.312 135.814C163.312 135.246 163.501 134.733 163.88 134.276C164.258 133.803 164.787 133.566 165.465 133.566C166.143 133.566 166.672 133.803 167.05 134.276C167.429 134.733 167.618 135.246 167.618 135.814C167.618 136.381 167.429 136.894 167.05 137.351C166.672 137.809 166.143 138.037 165.465 138.037Z" fill="#131126"/>
<path d="M182.244 140.337V138.197H180.104V137.133H182.244V135.014H183.309V137.133H185.427V138.197H183.309V140.337H182.244ZM190.001 140.465C189.369 140.465 188.815 140.295 188.34 139.954C187.864 139.606 187.492 139.127 187.222 138.517C186.96 137.899 186.828 137.182 186.828 136.366C186.828 135.543 186.96 134.826 187.222 134.216C187.492 133.606 187.861 133.13 188.329 132.789C188.805 132.449 189.358 132.278 189.99 132.278C190.622 132.278 191.172 132.449 191.64 132.789C192.116 133.13 192.485 133.609 192.747 134.227C193.017 134.837 193.152 135.55 193.152 136.366C193.152 137.182 193.021 137.899 192.758 138.517C192.495 139.127 192.126 139.606 191.651 139.954C191.182 140.295 190.632 140.465 190.001 140.465ZM190.001 139.315C190.391 139.315 190.728 139.195 191.012 138.953C191.296 138.712 191.516 138.371 191.672 137.931C191.828 137.491 191.906 136.97 191.906 136.366C191.906 135.763 191.828 135.241 191.672 134.801C191.516 134.361 191.296 134.021 191.012 133.779C190.728 133.538 190.387 133.417 189.99 133.417C189.6 133.417 189.263 133.538 188.979 133.779C188.695 134.021 188.475 134.361 188.319 134.801C188.163 135.241 188.084 135.763 188.084 136.366C188.084 136.962 188.163 137.484 188.319 137.931C188.475 138.371 188.695 138.712 188.979 138.953C189.27 139.195 189.61 139.315 190.001 139.315ZM195.034 140.337V138.953H196.258V140.337H195.034ZM201.684 140.337V138.549H197.905V137.505L201.631 132.406H202.877V137.505H203.973V138.549H202.877V140.337H201.684ZM198.831 137.963L198.629 137.505H201.684V133.407L202.025 133.513L198.831 137.963ZM205.948 140.337L212.399 132.406H213.74L207.289 140.337H205.948ZM207.161 136.43C206.771 136.43 206.42 136.338 206.107 136.153C205.795 135.962 205.543 135.71 205.352 135.398C205.167 135.085 205.075 134.738 205.075 134.354C205.075 133.971 205.167 133.623 205.352 133.311C205.543 132.992 205.795 132.74 206.107 132.555C206.42 132.371 206.771 132.278 207.161 132.278C207.552 132.278 207.903 132.371 208.215 132.555C208.528 132.74 208.776 132.992 208.961 133.311C209.145 133.623 209.237 133.971 209.237 134.354C209.237 134.738 209.145 135.085 208.961 135.398C208.776 135.71 208.528 135.962 208.215 136.153C207.903 136.338 207.552 136.43 207.161 136.43ZM207.161 135.461C207.381 135.461 207.57 135.408 207.726 135.302C207.889 135.195 208.013 135.057 208.098 134.887C208.183 134.716 208.226 134.539 208.226 134.354C208.226 134.163 208.183 133.985 208.098 133.822C208.013 133.652 207.889 133.513 207.726 133.407C207.57 133.3 207.381 133.247 207.161 133.247C206.949 133.247 206.76 133.3 206.597 133.407C206.434 133.513 206.306 133.652 206.214 133.822C206.129 133.985 206.086 134.163 206.086 134.354C206.086 134.539 206.129 134.716 206.214 134.887C206.306 135.057 206.434 135.195 206.597 135.302C206.76 135.408 206.949 135.461 207.161 135.461ZM212.474 140.465C212.083 140.465 211.728 140.373 211.409 140.188C211.097 139.996 210.848 139.745 210.664 139.432C210.479 139.12 210.387 138.772 210.387 138.389C210.387 138.006 210.479 137.658 210.664 137.346C210.848 137.026 211.097 136.774 211.409 136.59C211.728 136.405 212.083 136.313 212.474 136.313C212.864 136.313 213.215 136.405 213.528 136.59C213.84 136.774 214.088 137.026 214.273 137.346C214.457 137.658 214.55 138.006 214.55 138.389C214.55 138.772 214.457 139.12 214.273 139.432C214.088 139.745 213.84 139.996 213.528 140.188C213.215 140.373 212.864 140.465 212.474 140.465ZM212.474 139.496C212.694 139.496 212.882 139.443 213.038 139.336C213.194 139.23 213.315 139.092 213.4 138.921C213.492 138.751 213.538 138.574 213.538 138.389C213.538 138.197 213.492 138.02 213.4 137.857C213.315 137.686 213.194 137.548 213.038 137.442C212.882 137.335 212.694 137.282 212.474 137.282C212.261 137.282 212.073 137.335 211.909 137.442C211.746 137.548 211.618 137.686 211.526 137.857C211.441 138.02 211.398 138.197 211.398 138.389C211.398 138.574 211.441 138.751 211.526 138.921C211.618 139.092 211.746 139.23 211.909 139.336C212.073 139.443 212.261 139.496 212.474 139.496Z" fill="#131126"/>
<rect x="121.388" y="196.76" width="18.9257" height="23.6571" rx="1.77429" fill="#FAE0E1"/>
<rect x="148.594" y="203.857" width="18.9257" height="16.56" rx="1.77429" fill="#FAE0E1"/>
<rect x="175.8" y="180.2" width="18.9257" height="40.2171" rx="1.77429" fill="#FAE0E1"/>
<rect x="203.006" y="192.029" width="18.9257" height="28.3886" rx="1.77429" fill="#FAE0E1"/>
<rect x="230.211" y="158.909" width="18.9257" height="61.5086" rx="1.77429" fill="#3C3679"/>
<rect x="257.417" y="174.286" width="18.9257" height="46.1314" rx="1.77429" fill="#FAE0E1"/>
<rect x="284.623" y="174.286" width="18.9257" height="46.1314" rx="1.77429" fill="#FAE0E1"/>
<path d="M126.948 236.966V228.449H127.906L131.123 235.233L134.323 228.449H135.293V236.96H134.293V230.762L131.401 236.966H130.84L127.947 230.762V236.966H126.948Z" fill="#201C44"/>
<path d="M156.348 236.966V229.449H153.444V228.449H160.304V229.449H157.401V236.966H156.348Z" fill="#201C44"/>
<path d="M181.992 236.966L179.526 228.449H180.626L182.519 235.186L184.405 228.455L185.511 228.449L187.404 235.186L189.29 228.449H190.396L187.93 236.966H186.877L184.961 230.289L183.045 236.966H181.992Z" fill="#201C44"/>
<path d="M210.759 236.966V229.449H207.855V228.449H214.716V229.449H211.812V236.966H210.759Z" fill="#201C44"/>
<path d="M235.771 236.966V228.449H240.739V229.502H236.823V232.181H240.029V233.234H236.823V236.966H235.771Z" fill="#201C44"/>
<path d="M265.999 237.143C265.395 237.143 264.851 237.041 264.366 236.836C263.885 236.631 263.487 236.339 263.172 235.96C262.86 235.578 262.657 235.126 262.562 234.606L263.651 234.435C263.789 234.971 264.075 235.391 264.508 235.694C264.946 235.994 265.46 236.144 266.052 236.144C266.434 236.144 266.779 236.085 267.087 235.966C267.398 235.844 267.645 235.671 267.826 235.446C268.008 235.221 268.098 234.955 268.098 234.647C268.098 234.458 268.065 234.297 267.998 234.162C267.935 234.024 267.846 233.908 267.732 233.814C267.621 233.715 267.495 233.632 267.353 233.565C267.211 233.498 267.063 233.443 266.909 233.4L264.739 232.755C264.502 232.684 264.274 232.595 264.053 232.489C263.832 232.378 263.635 232.242 263.461 232.081C263.288 231.915 263.15 231.718 263.047 231.489C262.945 231.257 262.894 230.983 262.894 230.667C262.894 230.162 263.024 229.733 263.284 229.378C263.548 229.019 263.905 228.745 264.355 228.556C264.804 228.366 265.311 228.274 265.874 228.278C266.446 228.282 266.957 228.384 267.406 228.585C267.86 228.782 268.234 229.066 268.53 229.437C268.83 229.808 269.031 230.251 269.133 230.768L268.015 230.963C267.956 230.616 267.824 230.318 267.619 230.07C267.418 229.817 267.166 229.624 266.862 229.49C266.559 229.352 266.225 229.281 265.863 229.277C265.516 229.273 265.202 229.329 264.922 229.443C264.642 229.557 264.42 229.717 264.254 229.922C264.088 230.123 264.006 230.356 264.006 230.62C264.006 230.88 264.08 231.091 264.23 231.253C264.38 231.41 264.563 231.537 264.78 231.631C265.001 231.722 265.216 231.797 265.425 231.856L267.046 232.323C267.231 232.374 267.444 232.445 267.684 232.536C267.929 232.627 268.165 232.755 268.394 232.92C268.623 233.082 268.812 233.299 268.962 233.571C269.112 233.839 269.186 234.178 269.186 234.588C269.186 234.998 269.104 235.363 268.938 235.682C268.776 236.002 268.55 236.27 268.258 236.487C267.966 236.7 267.627 236.861 267.241 236.972C266.854 237.086 266.44 237.143 265.999 237.143Z" fill="#201C44"/>
<path d="M293.204 237.143C292.601 237.143 292.057 237.041 291.572 236.836C291.091 236.631 290.693 236.339 290.377 235.96C290.066 235.578 289.863 235.126 289.768 234.606L290.856 234.435C290.994 234.971 291.28 235.391 291.714 235.694C292.152 235.994 292.666 236.144 293.258 236.144C293.64 236.144 293.985 236.085 294.293 235.966C294.604 235.844 294.851 235.671 295.032 235.446C295.213 235.221 295.304 234.955 295.304 234.647C295.304 234.458 295.27 234.297 295.203 234.162C295.14 234.024 295.052 233.908 294.937 233.814C294.827 233.715 294.701 233.632 294.559 233.565C294.417 233.498 294.269 233.443 294.115 233.4L291.945 232.755C291.708 232.684 291.479 232.595 291.259 232.489C291.038 232.378 290.841 232.242 290.667 232.081C290.494 231.915 290.356 231.718 290.253 231.489C290.151 231.257 290.099 230.983 290.099 230.667C290.099 230.162 290.23 229.733 290.49 229.378C290.754 229.019 291.111 228.745 291.56 228.556C292.01 228.366 292.516 228.274 293.08 228.278C293.652 228.282 294.163 228.384 294.612 228.585C295.065 228.782 295.44 229.066 295.736 229.437C296.035 229.808 296.236 230.251 296.339 230.768L295.221 230.963C295.162 230.616 295.03 230.318 294.825 230.07C294.624 229.817 294.371 229.624 294.068 229.49C293.764 229.352 293.431 229.281 293.068 229.277C292.721 229.273 292.408 229.329 292.128 229.443C291.848 229.557 291.625 229.717 291.46 229.922C291.294 230.123 291.211 230.356 291.211 230.62C291.211 230.88 291.286 231.091 291.436 231.253C291.586 231.41 291.769 231.537 291.986 231.631C292.207 231.722 292.422 231.797 292.631 231.856L294.251 232.323C294.437 232.374 294.649 232.445 294.89 232.536C295.134 232.627 295.371 232.755 295.6 232.92C295.828 233.082 296.018 233.299 296.167 233.571C296.317 233.839 296.392 234.178 296.392 234.588C296.392 234.998 296.309 235.363 296.144 235.682C295.982 236.002 295.755 236.27 295.464 236.487C295.172 236.7 294.833 236.861 294.446 236.972C294.06 237.086 293.646 237.143 293.204 237.143Z" fill="#201C44"/>
<defs>
<filter id="filter0_d_1_358" x="0.737144" y="0.405716" width="476.691" height="443.571" filterUnits="userSpaceOnUse" color-interpolation-filters="sRGB">
<feFlood flood-opacity="0" result="BackgroundImageFix"/>
<feColorMatrix in="SourceAlpha" type="matrix" values="0 0 0 0 0 0 0 0 0 0 0 0 0 0 0 0 0 0 127 0" result="hardAlpha"/>
<feOffset dx="26.0229" dy="62.6914"/>
<feGaussianBlur stdDeviation="59.1429"/>
<feComposite in2="hardAlpha" operator="out"/>
<feColorMatrix type="matrix" values="0 0 0 0 0 0 0 0 0 0 0 0 0 0 0 0 0 0 0.06 0"/>
<feBlend mode="normal" in2="BackgroundImageFix" result="effect1_dropShadow_1_358"/>
<feBlend mode="normal" in="SourceGraphic" in2="effect1_dropShadow_1_358" result="shape"/>
</filter>
</defs>
</svg>
