<svg width="120" height="132" viewBox="0 0 120 132" fill="none" xmlns="http://www.w3.org/2000/svg">
<mask id="mask0_1_408" style="mask-type:alpha" maskUnits="userSpaceOnUse" x="0" y="0" width="120" height="132">
<path d="M96.0487 83.8039C96.0487 110.327 74.5475 131.828 48.0244 131.828C21.5013 131.828 3.05176e-05 110.327 3.05176e-05 83.8039C3.05176e-05 57.2808 84.4186 2.0915e-06 110.942 2.0915e-06C137.465 2.0915e-06 96.0487 57.2808 96.0487 83.8039Z" fill="#FFCB3C"/>
</mask>
<g mask="url(#mask0_1_408)">
<path fill-rule="evenodd" clip-rule="evenodd" d="M42.3032 77.3746C39.3346 76.1291 35.9806 75.8811 32.2837 76.963C19.6597 80.6573 14.4903 90.4947 13.7989 102.214C12.8305 118.685 21.0477 138.961 28.4073 149.036C29.2675 150.213 30.9194 150.469 32.0963 149.612C33.2706 148.751 33.5292 147.099 32.6689 145.923C25.845 136.581 18.1687 117.798 19.0686 102.525C19.6227 93.0781 23.5915 85.006 33.7667 82.0268C35.9675 81.383 37.9702 81.4727 39.7725 82.106C39.1867 83.2803 38.6273 84.4572 38.0969 85.6341C35.9779 90.3469 32.8114 103.433 33.9936 113.054C34.9304 120.667 38.527 126.126 45.9473 125.926C50.1958 125.812 53.3307 123.245 55.2122 119.036C57.5317 113.845 57.8484 105.905 56.2176 98.2923C54.8639 91.9619 52.1775 85.8874 48.4093 81.8025C47.8816 81.2299 47.3327 80.6943 46.7653 80.1982C59.136 58.2672 81.4629 37.9168 104.386 29.2483C105.748 28.7338 106.434 27.2111 105.919 25.8469C105.405 24.4853 103.879 23.7992 102.518 24.3138C78.6077 33.3543 55.3019 54.5147 42.3032 77.3746ZM44.2058 85.0456C43.7572 85.9613 43.3243 86.8796 42.9127 87.7979C41.0101 92.0278 38.1708 103.773 39.2316 112.41C39.7937 116.98 41.3532 120.77 45.8075 120.651C47.9924 120.593 49.4279 119.046 50.3937 116.883C51.6761 114.014 52.1327 110.125 51.9295 105.984C51.6103 99.5616 49.6707 92.5319 46.2561 87.5604C45.6255 86.6421 44.942 85.795 44.2058 85.0456Z" fill="#3C3679"/>
<path fill-rule="evenodd" clip-rule="evenodd" d="M86.7167 62.2532C88.7749 50.2494 96.6465 37.4776 105.104 28.627C106.109 27.5742 106.072 25.9038 105.019 24.8958C103.967 23.8904 102.294 23.9274 101.288 24.9803C92.15 34.5459 83.7375 48.3916 81.5156 61.3613C81.2702 62.7968 82.2361 64.1611 83.6716 64.4065C85.1071 64.6519 86.4713 63.6887 86.7167 62.2532Z" fill="#3C3679"/>
<path fill-rule="evenodd" clip-rule="evenodd" d="M101.515 24.4762C92.8203 29.4398 79.4838 30.0889 69.7625 27.5715C68.3507 27.2073 66.91 28.0571 66.5458 29.4662C66.1817 30.8753 67.0288 32.3161 68.4405 32.6829C79.3704 35.509 94.3561 34.6409 104.133 29.0598C105.397 28.3394 105.838 26.7244 105.114 25.4605C104.391 24.1965 102.779 23.7558 101.515 24.4762Z" fill="#3C3679"/>
</g>
</svg>
