<svg width="30" height="29" viewBox="0 0 30 29" fill="none" xmlns="http://www.w3.org/2000/svg">
<g clip-path="url(#clip0_17_80)">
<path d="M24.9193 24.0104H20.7441V17.4717C20.7441 15.9125 20.7162 13.9053 18.5725 13.9053C16.3979 13.9053 16.0652 15.6042 16.0652 17.3582V24.01H11.89V10.5638H15.8982V12.4014H15.9543C16.3554 11.7155 16.9351 11.1513 17.6315 10.7688C18.3279 10.3863 19.115 10.1998 19.909 10.2293C24.1408 10.2293 24.9211 13.0128 24.9211 16.634L24.9193 24.0104ZM7.17888 8.72588C5.84071 8.7261 4.75571 7.64143 4.75549 6.30326C4.75527 4.96509 5.83983 3.88009 7.178 3.87987C8.51617 3.87954 9.60116 4.96421 9.60139 6.30238C9.6015 6.945 9.34634 7.56134 8.89204 8.01583C8.43773 8.47033 7.82149 8.72574 7.17888 8.72588ZM9.26654 24.0105H5.08692V10.5638H9.26643V24.0104L9.26654 24.0105ZM27.0008 0.00229503H2.98891C1.85405 -0.0104736 0.923369 0.898628 0.9095 2.03349V26.1455C0.922929 27.281 1.85349 28.1909 2.9888 28.179H27.0008C28.1385 28.1931 29.0727 27.2832 29.0885 26.1455V2.03162C29.0723 0.894555 28.138 -0.0144362 27.0008 0.00042377" fill="white"/>
</g>
<defs>
<clipPath id="clip0_17_80">
<rect width="28.179" height="28.179" fill="white" transform="translate(0.909836)"/>
</clipPath>
</defs>
</svg>
